<?xml version="1.0" encoding="iso-8859-1"?>
<!-- Generator: Adobe Illustrator 19.0.0, SVG Export Plug-In . SVG Version: 6.00 Build 0)  -->
<svg version="1.1" id="Capa_1" xmlns="http://www.w3.org/2000/svg" xmlns:xlink="http://www.w3.org/1999/xlink" x="0px" y="0px"
	 viewBox="0 0 512 512" style="enable-background:new 0 0 512 512;" xml:space="preserve">
<g>
	<g>
		<g>
			<path d="M469.333,0h-256c-23.553,0.028-42.639,19.114-42.667,42.667v128h-128C19.114,170.694,0.028,189.781,0,213.333v256
				C0.028,492.886,19.114,511.972,42.667,512h256c23.553-0.028,42.639-19.114,42.667-42.667v-128h128
				c23.553-0.028,42.639-19.114,42.667-42.667v-256C511.972,19.114,492.886,0.028,469.333,0z M324.267,469.333
				c-0.015,14.132-11.468,25.585-25.6,25.6h-256c-14.132-0.015-25.585-11.468-25.6-25.6v-256c0.015-14.132,11.468-25.585,25.6-25.6
				h256c14.132,0.015,25.585,11.468,25.6,25.6V469.333z M494.933,298.667c-0.015,14.132-11.468,25.585-25.6,25.6h-128V213.333
				c-0.028-23.553-19.114-42.639-42.667-42.667H187.733v-128c0.015-14.132,11.468-25.585,25.6-25.6h256
				c14.132,0.015,25.585,11.468,25.6,25.6V298.667z"/>
			<path d="M85.333,298.667C108.897,298.667,128,279.564,128,256s-19.103-42.667-42.667-42.667S42.667,232.436,42.667,256
				C42.694,279.553,61.781,298.639,85.333,298.667z M85.333,230.4c14.138,0,25.6,11.461,25.6,25.6s-11.462,25.6-25.6,25.6
				s-25.6-11.462-25.6-25.6C59.749,241.868,71.201,230.415,85.333,230.4z"/>
			<path d="M170.667,298.667c-23.564,0-42.667,19.102-42.667,42.667C128,364.898,147.103,384,170.667,384
				s42.667-19.102,42.667-42.667C213.306,317.781,194.219,298.694,170.667,298.667z M170.667,366.933
				c-14.138,0-25.6-11.462-25.6-25.6c0-14.138,11.462-25.6,25.6-25.6s25.6,11.462,25.6,25.6
				C196.251,355.465,184.799,366.918,170.667,366.933z"/>
			<path d="M85.333,384c-23.564,0-42.667,19.103-42.667,42.667s19.102,42.667,42.667,42.667S128,450.231,128,426.667
				C127.972,403.114,108.886,384.028,85.333,384z M85.333,452.267c-14.138,0-25.6-11.461-25.6-25.6s11.461-25.6,25.6-25.6
				s25.6,11.461,25.6,25.6C110.918,440.799,99.465,452.251,85.333,452.267z"/>
			<path d="M256,213.333c-23.564,0-42.667,19.102-42.667,42.667s19.102,42.667,42.667,42.667s42.667-19.103,42.667-42.667
				C298.639,232.447,279.553,213.361,256,213.333z M256,281.6c-14.138,0-25.6-11.462-25.6-25.6s11.461-25.6,25.6-25.6
				s25.6,11.461,25.6,25.6C281.585,270.132,270.132,281.585,256,281.6z"/>
			<path d="M256,384c-23.564,0-42.667,19.103-42.667,42.667s19.102,42.667,42.667,42.667s42.667-19.103,42.667-42.667
				C298.639,403.114,279.553,384.028,256,384z M256,452.267c-14.138,0-25.6-11.461-25.6-25.6s11.461-25.6,25.6-25.6
				s25.6,11.461,25.6,25.6C281.585,440.799,270.132,452.251,256,452.267z"/>
			<path d="M256,42.667c-23.564,0-42.667,19.102-42.667,42.667S232.436,128,256,128s42.667-19.103,42.667-42.667
				C298.639,61.781,279.553,42.694,256,42.667z M256,110.933c-14.138,0-25.6-11.462-25.6-25.6s11.461-25.6,25.6-25.6
				s25.6,11.461,25.6,25.6C281.585,99.465,270.132,110.918,256,110.933z"/>
			<path d="M426.667,42.667C403.103,42.667,384,61.769,384,85.333S403.103,128,426.667,128s42.667-19.103,42.667-42.667
				C469.306,61.781,450.219,42.694,426.667,42.667z M426.667,110.933c-14.138,0-25.6-11.462-25.6-25.6s11.461-25.6,25.6-25.6
				s25.6,11.461,25.6,25.6C452.251,99.465,440.799,110.918,426.667,110.933z"/>
			<path d="M426.667,213.333C403.103,213.333,384,232.436,384,256s19.103,42.667,42.667,42.667s42.667-19.103,42.667-42.667
				C469.306,232.447,450.219,213.361,426.667,213.333z M426.667,281.6c-14.138,0-25.6-11.462-25.6-25.6s11.461-25.6,25.6-25.6
				s25.6,11.461,25.6,25.6C452.251,270.132,440.799,281.585,426.667,281.6z"/>
		</g>
	</g>
</g>
<g>
</g>
<g>
</g>
<g>
</g>
<g>
</g>
<g>
</g>
<g>
</g>
<g>
</g>
<g>
</g>
<g>
</g>
<g>
</g>
<g>
</g>
<g>
</g>
<g>
</g>
<g>
</g>
<g>
</g>
</svg>
